<?xml version="1.0" standalone="no"?>
<!DOCTYPE svg PUBLIC "-//W3C//DTD SVG 20010904//EN"
 "http://www.w3.org/TR/2001/REC-SVG-20010904/DTD/svg10.dtd">
<svg version="1.0" xmlns="http://www.w3.org/2000/svg"
 width="33.000000pt" height="33.000000pt" viewBox="0 0 739.000000 976.000000"
 preserveAspectRatio="xMidYMid meet">
<metadata>
Created by potrace 1.15, written by Peter Selinger 2001-2017
</metadata>
<g transform="translate(0.000000,976.000000) scale(0.100000,-0.100000)"
fill="#ffffff" stroke="none">
<path d="M4480 9725 c-223 -50 -414 -158 -572 -323 -159 -166 -253 -354 -294
-585 -16 -94 -22 -265 -10 -303 6 -20 1 -22 -93 -33 -342 -41 -698 -195 -996
-431 -110 -87 -406 -386 -450 -455 -64 -99 -87 -176 -92 -300 -6 -130 9 -203
65 -310 46 -88 154 -199 239 -243 196 -103 441 -92 620 28 l32 21 85 -85 c171
-173 282 -385 337 -649 17 -78 22 -139 23 -262 0 -88 -3 -176 -7 -196 -7 -36
-9 -37 -60 -41 -71 -6 -172 -54 -225 -109 -24 -24 -58 -70 -75 -104 -30 -57
-32 -66 -32 -170 0 -98 3 -116 27 -167 37 -79 108 -152 185 -190 54 -26 63
-35 59 -52 -14 -57 -48 -423 -55 -602 -16 -363 11 -647 93 -967 66 -255 155
-448 294 -630 24 -32 40 -62 36 -67 -10 -9 -1993 -1160 -1999 -1160 -2 0 12
38 30 84 70 172 128 398 165 641 28 177 39 602 21 782 -19 184 -50 353 -76
408 -12 28 -60 91 -105 140 -170 185 -325 416 -454 675 -350 704 -386 1499
-106 2340 72 216 153 399 277 623 67 123 25 274 -94 344 -41 24 -59 28 -123
28 -143 -1 -199 -54 -324 -309 -129 -262 -242 -570 -310 -841 -117 -470 -146
-993 -80 -1445 87 -595 363 -1195 777 -1688 43 -51 82 -103 86 -115 36 -96 48
-623 18 -832 -71 -505 -261 -918 -568 -1239 -163 -171 -299 -276 -524 -405
-132 -76 -150 -91 -182 -155 -22 -43 -24 -59 -21 -131 2 -69 7 -88 31 -124 15
-23 49 -55 74 -72 43 -26 55 -29 135 -29 101 0 114 5 298 115 58 35 814 474
1681 977 l1575 915 240 6 c250 6 383 20 597 63 818 162 1559 635 2063 1316
357 483 584 1074 644 1677 16 159 13 564 -6 721 -114 996 -653 1883 -1480
2438 l-91 61 13 51 c81 314 11 675 -184 936 -147 197 -347 337 -588 410 -81
25 -106 27 -284 30 -143 3 -212 0 -260 -11z m-1138 -1641 c25 -8 64 -31 87
-51 129 -110 129 -306 0 -417 -56 -47 -126 -70 -199 -63 -230 21 -332 294
-172 460 78 81 180 107 284 71z m184 -2574 c119 -58 200 -177 211 -308 19
-227 -175 -425 -402 -410 -35 2 -66 6 -69 9 -3 2 20 166 49 364 30 198 55 366
55 374 0 22 85 6 156 -29z m1207 6 c159 -76 247 -251 212 -419 -18 -85 -48
-138 -114 -201 -195 -182 -493 -120 -605 125 -93 202 19 444 237 515 70 23
200 13 270 -20z"/>
<path d="M2042 5541 c-177 -66 -283 -246 -252 -433 29 -181 177 -315 360 -326
175 -10 312 72 387 234 24 51 28 71 28 155 0 90 -2 99 -38 171 -43 88 -102
147 -187 186 -76 36 -220 42 -298 13z"/>
</g>
</svg>
